<?xml version="1.0" encoding="UTF-8"?>
<svg xmlns="http://www.w3.org/2000/svg" width="390" height="684" viewBox="0 0 390 684">
  <defs>
    <style>
      text { font-family: 'Inter, Noto Sans SC, -apple-system, sans-serif'; }
    </style>
  </defs>
  
  <rect x="0" y="0" width="390" height="44" fill="#FFFFFF"/>
  <text x="24" y="28" font-size="14" font-weight="700" fill="#111827">9:41</text>
  <rect x="0" y="44" width="390" height="56" fill="#FFFFFF"/>
  <text x="16" y="80" font-size="20" font-weight="700" fill="#111827">🏫 校园通</text>
  <text x="374" y="80" font-size="12" fill="#6B7280" text-anchor="end">华北理工大学 ▾</text>
  <rect x="0" y="100" width="390" height="38" fill="#FFFFFF"/>
  <line x1="0" y1="137.5" x2="390" y2="137.5" stroke="#E5E7EB" stroke-width="1"/>
  <text x="16" y="125" font-size="13" font-weight="600" fill="#2563EB">全部</text>
  <rect x="16" y="136" width="60" height="2" fill="#2563EB"/>
  <text x="92" y="125" font-size="13" font-weight="400" fill="#6B7280">校招</text>
  <text x="168" y="125" font-size="13" font-weight="400" fill="#6B7280">租房</text>
  <text x="244" y="125" font-size="13" font-weight="400" fill="#6B7280">二手</text>
  <text x="320" y="125" font-size="13" font-weight="400" fill="#6B7280">生活</text>
  <rect x="0" y="138" width="390" height="42" fill="#FFFFFF"/>
  <rect x="16" y="143" width="32" height="32" rx="16" fill="#DBEAFE"/>
  <rect x="56" y="146" width="290" height="26" rx="13" fill="#F3F4F6"/>
  <text x="70" y="162" font-size="12" fill="#9CA3AF">分享校园新鲜事...</text>
  <text x="360" y="164" font-size="18" fill="#9CA3AF" text-anchor="middle">+</text>
  <rect x="12" y="192" width="366" height="86" rx="8" fill="#FFFFFF" stroke="#E5E7EB" stroke-width="1"/>
  <rect x="28" y="206" width="28" height="24" rx="12" fill="#FEE2E2"/>
  <text x="42" y="222" font-size="10" font-weight="600" fill="#DC2626" text-anchor="middle">二手</text>
  <text x="28" y="232" font-size="14" font-weight="600" fill="#111827">几乎全新数据结构教材</text>
  <text x="28" y="248" font-size="12" fill="#6B7280">紫金港校区 · 计算机专业适用</text>
  <text x="28" y="264" font-size="14" font-weight="700" fill="#DC2626">¥15</text>
  <text x="350" y="264" font-size="11" fill="#9CA3AF" text-anchor="end">2小时前</text>
  <rect x="286" y="208" width="72" height="56" rx="6" fill="#FEE2E2"/>
  <rect x="12" y="290" width="366" height="86" rx="8" fill="#FFFFFF" stroke="#E5E7EB" stroke-width="1"/>
  <rect x="28" y="304" width="28" height="24" rx="12" fill="#FEF3C7"/>
  <text x="42" y="320" font-size="10" font-weight="600" fill="#D97706" text-anchor="middle">美食</text>
  <text x="28" y="330" font-size="14" font-weight="600" fill="#111827">紫金港食堂三楼麻辣烫</text>
  <text x="28" y="346" font-size="12" fill="#6B7280">汤底浓郁，食材新鲜，性价比高</text>
  <text x="350" y="362" font-size="11" fill="#9CA3AF" text-anchor="end">3小时前</text>
  <rect x="286" y="306" width="72" height="56" rx="6" fill="#FEF3C7"/>
  <rect x="12" y="388" width="366" height="72" rx="8" fill="#FFFFFF" stroke="#E5E7EB" stroke-width="1"/>
  <rect x="28" y="402" width="28" height="24" rx="12" fill="#DBEAFE"/>
  <text x="42" y="418" font-size="10" font-weight="600" fill="#2563EB" text-anchor="middle">校招</text>
  <text x="28" y="428" font-size="14" font-weight="600" fill="#111827">字节跳动 后端开发实习生内推</text>
  <text x="28" y="444" font-size="12" fill="#6B7280">张三 · 计算机学院 · 有效期至6/30</text>
  <text x="350" y="460" font-size="11" fill="#9CA3AF" text-anchor="end">5小时前</text>
  <rect x="12" y="472" width="366" height="86" rx="8" fill="#FFFFFF" stroke="#E5E7EB" stroke-width="1"/>
  <rect x="28" y="486" width="28" height="24" rx="12" fill="#DCFCE7"/>
  <text x="42" y="502" font-size="10" font-weight="600" fill="#16A34A" text-anchor="middle">租房</text>
  <text x="28" y="512" font-size="14" font-weight="600" fill="#111827">紫金港周边单间转租</text>
  <text x="28" y="528" font-size="12" fill="#6B7280">1室0厅 · 步行10分钟到校</text>
  <text x="28" y="544" font-size="14" font-weight="700" fill="#DC2626">¥1200/月</text>
  <text x="350" y="544" font-size="11" fill="#9CA3AF" text-anchor="end">6小时前</text>
  <rect x="286" y="488" width="72" height="56" rx="6" fill="#DCFCE7"/>
  <rect x="12" y="570" width="366" height="86" rx="8" fill="#FFFFFF" stroke="#E5E7EB" stroke-width="1"/>
  <rect x="28" y="584" width="28" height="24" rx="12" fill="#FEE2E2"/>
  <text x="42" y="600" font-size="10" font-weight="600" fill="#DC2626" text-anchor="middle">二手</text>
  <text x="28" y="610" font-size="14" font-weight="600" fill="#111827">机械键盘 Cherry MX 青轴</text>
  <text x="28" y="626" font-size="12" fill="#6B7280">9成新 · 使用半年 · 配件齐全</text>
  <text x="28" y="642" font-size="14" font-weight="700" fill="#DC2626">¥120</text>
  <text x="350" y="642" font-size="11" fill="#9CA3AF" text-anchor="end">昨天</text>
  <rect x="286" y="586" width="72" height="56" rx="6" fill="#FEE2E2"/>
  <rect x="0" y="620" width="390" height="64" fill="#FFFFFF"/>
  <line x1="0" y1="620.5" x2="390" y2="620.5" stroke="#E5E7EB" stroke-width="1"/>
  <text x="39" y="670" font-size="10" fill="#2563EB" text-anchor="middle">首页</text>
  <text x="117" y="670" font-size="10" fill="#9CA3AF" text-anchor="middle">求职</text>
  <circle cx="195" cy="638" r="22" fill="#2563EB"/>
  <text x="195" y="644" font-size="18" fill="#fff" text-anchor="middle">+</text>
  <text x="195" y="670" font-size="10" fill="#9CA3AF" text-anchor="middle">发布</text>
  <text x="273" y="670" font-size="10" fill="#9CA3AF" text-anchor="middle">消息</text>
  <text x="351" y="670" font-size="10" fill="#9CA3AF" text-anchor="middle">我的</text>
</svg>