<?xml version="1.0" encoding="UTF-8"?>
<svg xmlns="http://www.w3.org/2000/svg" width="390" height="424" viewBox="0 0 390 424">
  <defs>
    <style>
      text { font-family: 'Inter, Noto Sans SC, -apple-system, sans-serif'; }
    </style>
  </defs>
  
  <rect x="0" y="0" width="390" height="44" fill="#FFFFFF"/>
  <text x="24" y="28" font-size="14" font-weight="700" fill="#111827">9:41</text>
  <rect x="0" y="44" width="390" height="48" fill="#FFFFFF"/>
  <line x1="0" y1="91.5" x2="390" y2="91.5" stroke="#E5E7EB" stroke-width="1"/>
  <text x="16" y="74" font-size="14" fill="#2563EB">← 返回</text>
  <text x="195" y="74" font-size="16" font-weight="600" fill="#111827" text-anchor="middle">校招内推</text>
  <text x="374" y="74" font-size="14" font-weight="600" fill="#2563EB" text-anchor="end">发布</text>
  <rect x="0" y="92" width="390" height="38" fill="#FFFFFF"/>
  <text x="97" y="117" font-size="13" font-weight="600" fill="#2563EB" text-anchor="middle">内推信息</text>
  <rect x="67" y="128" width="60" height="2" fill="#2563EB"/>
  <text x="292" y="117" font-size="13" fill="#6B7280" text-anchor="middle">面经/笔试</text>
  <line x1="0" y1="129.5" x2="390" y2="129.5" stroke="#E5E7EB" stroke-width="1"/>
  <rect x="16" y="138" width="358" height="38" rx="8" fill="#F0F0F0"/>
  <text x="40" y="162" font-size="13" fill="#9CA3AF">🔍 搜索公司/岗位...</text>
  <rect x="0" y="192" width="390" height="60" fill="#FFFFFF"/>
  <text x="16" y="214" font-size="15" font-weight="600" fill="#111827">字节跳动 后端开发实习生</text>
  <text x="16" y="232" font-size="12" fill="#6B7280">张三 · 计算机学院 · 内推码 BT2026XYZ</text>
  <text x="16" y="246" font-size="11" fill="#DC2626">有效期至 2026/06/30</text>
  <text x="374" y="246" font-size="11" fill="#9CA3AF" text-anchor="end">2小时前</text>
  <line x1="0" y1="251.5" x2="390" y2="251.5" stroke="#E5E7EB" stroke-width="1"/>
  <rect x="0" y="253" width="390" height="60" fill="#FFFFFF"/>
  <text x="16" y="275" font-size="15" font-weight="600" fill="#111827">阿里巴巴 前端工程师校招</text>
  <text x="16" y="293" font-size="12" fill="#6B7280">李四 · 软件学院 · 直推淘宝技术部</text>
  <text x="16" y="307" font-size="11" fill="#DC2626">有效期至 2026/07/15</text>
  <text x="374" y="307" font-size="11" fill="#9CA3AF" text-anchor="end">1天前</text>
  <line x1="0" y1="312.5" x2="390" y2="312.5" stroke="#E5E7EB" stroke-width="1"/>
  <rect x="0" y="314" width="390" height="60" fill="#FFFFFF"/>
  <text x="16" y="336" font-size="15" font-weight="600" fill="#111827">腾讯 产品经理实习生</text>
  <text x="16" y="354" font-size="12" fill="#6B7280">王五 · 经管学院</text>
  <text x="16" y="368" font-size="11" fill="#DC2626">有效期至 2026/06/25</text>
  <text x="374" y="368" font-size="11" fill="#9CA3AF" text-anchor="end">2天前</text>
  <line x1="0" y1="373.5" x2="390" y2="373.5" stroke="#E5E7EB" stroke-width="1"/>
  <rect x="0" y="375" width="390" height="60" fill="#FFFFFF"/>
  <text x="16" y="397" font-size="15" font-weight="600" fill="#111827">美团 数据开发工程师</text>
  <text x="16" y="415" font-size="12" fill="#6B7280">赵六 · 计算机学院 · 内推码 MT2026DEV</text>
  <text x="16" y="429" font-size="11" fill="#DC2626">有效期至 2026/07/01</text>
  <text x="374" y="429" font-size="11" fill="#9CA3AF" text-anchor="end">3天前</text>
  <line x1="0" y1="434.5" x2="390" y2="434.5" stroke="#E5E7EB" stroke-width="1"/>
</svg>