<?xml version="1.0" encoding="UTF-8"?>
<svg xmlns="http://www.w3.org/2000/svg" width="390" height="596" viewBox="0 0 390 596">
  <defs>
    <style>
      text { font-family: 'Inter, Noto Sans SC, -apple-system, sans-serif'; }
    </style>
  </defs>
  
  <rect x="0" y="0" width="390" height="44" fill="#FFFFFF"/>
  <text x="24" y="28" font-size="14" font-weight="700" fill="#111827">9:41</text>
  <rect x="0" y="44" width="390" height="48" fill="#FFFFFF"/>
  <line x1="0" y1="91.5" x2="390" y2="91.5" stroke="#E5E7EB" stroke-width="1"/>
  <text x="16" y="74" font-size="14" fill="#2563EB">← 返回</text>
  <text x="350" y="74" font-size="20" fill="#6B7280" text-anchor="end">⋯</text>
  <rect x="0" y="92" width="390" height="260" fill="#F0F0F0"/>
  <text x="195" y="222" font-size="64" fill="#9CA3AF" text-anchor="middle">📖</text>
  <rect x="171" y="332" width="18" height="6" rx="3" fill="#fff"/>
  <circle cx="189" cy="335" r="3" fill="rgba(255,255,255,0.5)"/>
  <circle cx="201" cy="335" r="3" fill="rgba(255,255,255,0.5)"/>
  <circle cx="213" cy="335" r="3" fill="rgba(255,255,255,0.5)"/>
  <rect x="0" y="352" width="390" height="100" fill="#FFFFFF"/>
  <rect x="16" y="366" width="28" height="24" rx="12" fill="#FEE2E2"/>
  <text x="30" y="382" font-size="10" font-weight="600" fill="#DC2626" text-anchor="middle">二手</text>
  <rect x="62" y="366" width="36" height="24" rx="12" fill="#F3F4F6"/>
  <text x="80" y="382" font-size="10" font-weight="600" fill="#6B7280" text-anchor="middle">书本</text>
  <text x="16" y="404" font-size="20" font-weight="600" fill="#111827">几乎全新的数据结构教材</text>
  <text x="16" y="434" font-size="24" font-weight="700" fill="#DC2626">¥15</text>
  <rect x="0" y="468" width="390" height="60" fill="#FFFFFF"/>
  <text x="16" y="490" font-size="13" fill="#6B7280">📍 交易地点：紫金港校区</text>
  <text x="16" y="512" font-size="11" fill="#16A34A">🔒 仅校园认证用户可查看联系方式</text>
  <rect x="16" y="528" width="358" height="60" rx="12" fill="#F9FAFB"/>
  <circle cx="44" cy="558" r="22" fill="#DBEAFE"/>
  <text x="44" y="564" font-size="18" font-weight="600" fill="#2563EB" text-anchor="middle">王</text>
  <text x="76" y="548" font-size="14" font-weight="600" fill="#111827">王五</text>
  <text x="76" y="566" font-size="12" fill="#6B7280">华北理工大学 · 计算机学院</text>
  <rect x="76" y="572" width="80" height="16" rx="4" fill="#DCFCE7"/>
  <text x="116" y="583" font-size="10" fill="#16A34A" text-anchor="middle">✓ 已认证学生</text>
  <rect x="0" y="528" width="390" height="68" fill="#FFFFFF"/>
  <rect x="16" y="540" width="171" height="44" rx="6" fill="#FFFFFF" stroke="#E5E7EB" stroke-width="1.5"/>
  <text x="97" y="566" font-size="14" font-weight="600" fill="#111827" text-anchor="middle">☆ 收藏</text>
  <rect x="203" y="540" width="171" height="44" rx="6" fill="#2563EB"/>
  <text x="292" y="566" font-size="14" font-weight="600" fill="#fff" text-anchor="middle">📋 复制联系方式</text>
  <line x1="0" y1="528.5" x2="390" y2="528.5" stroke="#E5E7EB" stroke-width="1"/>
</svg>